<?xml version="1.0" encoding="UTF-8"?>
<svg xmlns="http://www.w3.org/2000/svg" viewBox="0 0 800 800">
  <defs>
    <linearGradient id="africa-grad" x1="0%" y1="0%" x2="100%" y2="100%">
      <stop offset="0%" style="stop-color:#1E293B;stop-opacity:1" />
      <stop offset="100%" style="stop-color:#0F172A;stop-opacity:1" />
    </linearGradient>
    <filter id="glow" x="-20%" y="-20%" width="140%" height="140%">
      <feGaussianBlur stdDeviation="5" result="blur" />
      <feComposite in="SourceGraphic" in2="blur" operator="over" />
    </filter>
  </defs>
  
  <!-- Simplified Africa continent shape -->
  <path d="M400,100 C500,150 550,200 570,300 C590,400 600,450 550,550 C500,650 450,680 400,700 C350,680 300,650 250,550 C200,450 210,400 230,300 C250,200 300,150 400,100 Z" 
        fill="url(#africa-grad)" 
        stroke="#4338ca" 
        stroke-width="2" 
        stroke-opacity="0.5" />
  
  <!-- Grid lines for effect -->
  <g stroke="#4338ca" stroke-width="0.5" stroke-opacity="0.2">
    <line x1="200" y1="100" x2="600" y2="700" />
    <line x1="600" y1="100" x2="200" y2="700" />
    <line x1="100" y1="400" x2="700" y2="400" />
    <line x1="400" y1="100" x2="400" y2="700" />
  </g>
  
  <g filter="url(#glow)">
    <!-- Deployment points - These are just examples, adjust as needed -->
    <circle id="location-nigeria" cx="350" cy="350" r="8" fill="#6a11cb" fill-opacity="0.9" />
    <circle id="location-kenya" cx="480" cy="400" r="8" fill="#6a11cb" fill-opacity="0.9" />
    <circle id="location-south-africa" cx="400" cy="600" r="8" fill="#6a11cb" fill-opacity="0.9" />
    <circle id="location-ghana" cx="300" cy="380" r="8" fill="#6a11cb" fill-opacity="0.9" />
    <circle id="location-tanzania" cx="450" cy="480" r="8" fill="#6a11cb" fill-opacity="0.9" />
    <circle id="location-ethiopia" cx="480" cy="300" r="8" fill="#6a11cb" fill-opacity="0.9" />
    <circle id="location-senegal" cx="230" cy="320" r="8" fill="#6a11cb" fill-opacity="0.9" />
    <circle id="location-morocco" cx="300" cy="200" r="8" fill="#6a11cb" fill-opacity="0.9" />
  </g>
</svg>