<?xml version="1.0" encoding="UTF-8"?>
<svg xmlns="http://www.w3.org/2000/svg" viewBox="0 0 200 80">
  <defs>
    <linearGradient id="mayo-grad" x1="0%" y1="0%" x2="100%" y2="0%">
      <stop offset="0%" style="stop-color:#0057B8;stop-opacity:1" />
      <stop offset="100%" style="stop-color:#1276D3;stop-opacity:1" />
    </linearGradient>
  </defs>
  <!-- Three interlocking shields -->
  <g>
    <path d="M60,20 L80,20 L95,65 L80,65 L75,55 L65,55 L60,65 L45,65 Z M70,30 L67,45 L73,45 Z" fill="url(#mayo-grad)" opacity="0.9"/>
    <path d="M85,20 L105,20 L120,65 L105,65 L100,55 L90,55 L85,65 L70,65 Z M95,30 L92,45 L98,45 Z" fill="url(#mayo-grad)" opacity="0.7"/>
    <path d="M110,20 L130,20 L145,65 L130,65 L125,55 L115,55 L110,65 L95,65 Z M120,30 L117,45 L123,45 Z" fill="url(#mayo-grad)" opacity="0.5"/>
  </g>
</svg>